<svg width="130" height="133" viewBox="0 0 130 133" fill="none" xmlns="http://www.w3.org/2000/svg">
<path d="M123.322 33.6618C117.83 27.5884 108.655 24.5518 95.3455 24.5518H93.7949V24.2933C93.7949 13.4389 93.7949 0 69.5015 0H59.6808C35.3876 0 35.3876 13.5035 35.3876 24.2933V24.6164H33.8369C20.4627 24.6164 11.3527 27.6531 5.86082 33.7264C-0.535566 40.8335 -0.341737 50.3958 0.304363 56.9212L0.368972 57.3734L0.869441 62.6282C0.961575 63.596 1.48278 64.4702 2.29616 65.0026C3.8455 66.0163 6.43862 67.6878 7.99295 68.551C8.89749 69.1325 9.86663 69.6493 10.8358 70.1662C21.8841 76.2395 34.0308 80.31 46.3713 82.3129C46.9527 88.3862 49.6017 95.4933 63.7513 95.4933C77.9008 95.4933 80.6791 88.4508 81.1313 82.1837C94.3118 80.0515 107.04 75.4642 118.54 68.7448C118.928 68.551 119.187 68.3571 119.51 68.1633C122.073 66.7147 124.732 64.9296 127.156 63.1812C127.886 62.654 128.353 61.8399 128.453 60.9451L128.555 60.0224L128.878 56.9858C128.943 56.5981 128.943 56.2751 129.007 55.8228C129.524 49.2974 129.395 40.3812 123.322 33.6618ZM71.6337 77.9194C71.6337 84.7681 71.6337 85.8018 63.6866 85.8018C55.7396 85.8018 55.7396 84.5742 55.7396 77.984V69.8432H71.6337V77.9194ZM44.6268 24.5518V24.2933C44.6268 13.3096 44.6268 9.23922 59.6808 9.23922H69.5015C84.5557 9.23922 84.5557 13.3743 84.5557 24.2933V24.6164H44.6268V24.5518Z" fill="#19003F"/>
<path d="M121.915 77.3085C124.2 76.2212 126.831 78.0322 126.603 80.552L124.283 106.097C122.926 119.019 117.628 132.2 89.1999 132.2H39.9674C11.539 132.2 6.24103 119.019 4.88422 106.162L2.6829 81.9475C2.4565 79.4568 5.02772 77.6477 7.30606 78.6789C14.6678 82.0096 28.2562 87.9188 36.6502 90.1175C37.7118 90.3953 38.5704 91.1551 39.0352 92.1494C42.9569 100.536 51.4623 104.999 63.7436 104.999C75.9045 104.999 84.517 100.365 88.4518 91.9569C88.917 90.9619 89.7769 90.2021 90.8391 89.923C99.752 87.5776 114.216 80.9719 121.915 77.3085Z" fill="#19003F"/>
</svg>
