<svg width="119" height="119" viewBox="0 0 119 119" fill="none" xmlns="http://www.w3.org/2000/svg">
<path d="M91.8989 16.5332H29.9913C21.9164 16.5332 5.7666 21.9165 5.7666 38.0663C5.7666 54.2161 21.9164 59.5994 29.9913 59.5994H89.2073C97.2822 59.5994 113.432 64.9826 113.432 81.1324C113.432 97.2822 97.2822 102.666 89.2073 102.666H27.2997" stroke="#19003F" stroke-width="10.7665" stroke-linecap="round" stroke-linejoin="round"/>
<path d="M102.665 27.2997C108.612 27.2997 113.432 22.4792 113.432 16.5331C113.432 10.5869 108.612 5.7666 102.665 5.7666C96.7194 5.7666 91.8989 10.5869 91.8989 16.5331C91.8989 22.4792 96.7194 27.2997 102.665 27.2997Z" fill="#2F88FF" stroke="#19003F" stroke-width="10.7665" stroke-linejoin="round"/>
<path d="M16.5331 113.432C22.4792 113.432 27.2997 108.612 27.2997 102.665C27.2997 96.7194 22.4792 91.8989 16.5331 91.8989C10.5869 91.8989 5.7666 96.7194 5.7666 102.665C5.7666 108.612 10.5869 113.432 16.5331 113.432Z" fill="#2F88FF" stroke="#19003F" stroke-width="10.7665" stroke-linejoin="round"/>
</svg>
