<svg width="130" height="139" viewBox="0 0 130 139" fill="none" xmlns="http://www.w3.org/2000/svg">
<path d="M120.291 18.1016H113.658C113.6 13.9857 113.014 9.71296 111.039 5.86007C109.62 3.07769 106.651 0.0853634 102.152 0.0507567C102.014 0.0438354 101.91 0 101.765 0C92.9514 0 90.4574 8.64245 90.3997 18.1016H86.9852C86.9275 13.9857 86.3415 9.71296 84.3643 5.86007C82.9454 3.07769 79.9762 0.0853634 75.475 0.0507567C75.3389 0.0438354 75.235 0 75.0897 0C66.2788 0 63.7848 8.64245 63.7248 18.1016H60.3103C60.2526 13.9857 59.6666 9.71296 57.6894 5.86007C56.2705 3.07769 53.3013 0.0853634 48.8001 0.0507567C48.664 0.0438354 48.5602 0 48.4125 0C39.6016 0 37.1076 8.64245 37.0477 18.1016H33.6331C33.5754 13.9857 32.9894 9.71296 31.0146 5.86007C29.5957 3.07769 26.6264 0.0853634 22.1252 0.0507567C21.9891 0.0438354 21.8853 0 21.7399 0C12.9291 0 10.4351 8.64245 10.3774 18.1016H8.90777C3.989 18.1016 0 21.9937 0 26.7948V129.731C0 134.535 3.989 138.427 8.90777 138.427H15.5776H113.621H120.291C125.209 138.427 129.198 134.535 129.198 129.731V26.7948C129.198 21.9937 125.209 18.1016 120.291 18.1016ZM117.919 99.9927V129.734C117.919 131.969 115.99 133.79 113.621 133.79H89.1723C102.247 127.249 112.405 114.479 117.919 99.9927ZM102.909 5.76087C106.333 6.44377 106.96 14.8394 106.992 18.1016H97.5518C97.5841 9.06927 99.499 5.08258 102.909 5.76087ZM76.234 5.76087C79.6601 6.44147 80.2899 14.8394 80.3199 18.1016H70.8792C70.9092 9.06927 72.8195 5.08258 76.234 5.76087ZM49.5568 5.76087C52.9829 6.44147 53.6127 14.8394 53.6427 18.1016H44.202C44.2343 9.06927 46.1446 5.08258 49.5568 5.76087ZM17.5295 18.1016C17.5618 9.06927 19.4744 5.08258 22.8843 5.76087C26.308 6.44377 26.9379 14.8394 26.9702 18.1016H17.5295ZM4.61423 129.731V26.7948C4.61423 24.5592 6.54067 22.7389 8.90777 22.7389H10.6127C11.0257 26.5249 12.0616 30.8531 14.2718 33.8062C14.2695 33.8915 14.2464 33.97 14.2464 34.053C14.2464 37.6521 17.2434 40.5729 20.9278 40.5729C24.6192 40.5729 27.6139 37.6498 27.6139 34.053C27.6139 30.447 24.6169 27.5285 20.9278 27.5285C20.1204 27.5285 19.3544 27.69 18.6392 27.9484C18.1939 26.4442 17.9009 24.5915 17.7256 22.7389H37.2853C37.719 26.7049 38.8241 31.2845 41.2605 34.2353C41.362 37.7444 44.2966 40.5729 47.9303 40.5729C51.6171 40.5729 54.6094 37.6498 54.6094 34.053C54.6094 30.447 51.6171 27.5285 47.9303 27.5285C47.0121 27.5285 46.14 27.7108 45.3417 28.0361C44.8826 26.5157 44.5781 24.6261 44.4027 22.7389H63.9648C64.3985 26.7002 65.5013 31.2776 67.9353 34.2284C68.0345 37.7421 70.9761 40.5729 74.6006 40.5729C78.2966 40.5729 81.282 37.6498 81.282 34.053C81.282 30.447 78.2943 27.5285 74.6006 27.5285C73.687 27.5285 72.8172 27.7108 72.0212 28.0361C71.5621 26.5157 71.2576 24.6261 71.0822 22.7389H90.6419C91.0757 26.7049 92.1808 31.2868 94.6194 34.2399C94.7232 37.749 97.6602 40.5729 101.28 40.5729C104.976 40.5729 107.966 37.6498 107.966 34.053C107.966 30.447 104.974 27.5285 101.28 27.5285C100.366 27.5285 99.4967 27.7108 98.6984 28.0361C98.2393 26.5157 97.937 24.6261 97.7617 22.7389H113.628C115.997 22.7389 117.926 24.5592 117.926 26.7948V87.2343C116.029 90.4435 113.397 93.8765 109.798 96.9334V91.8739H10.8365V98.3223H108.042C102.09 102.768 93.8004 106.097 82.2856 106.097C82.2856 107.904 82.2094 109.595 82.0918 111.221H60.3149V117.67H81.282C79.8539 125.459 77.1338 130.587 74.6975 133.787H8.90777C6.54067 133.787 4.61423 131.967 4.61423 129.731Z" fill="#19003F"/>
<path d="M10.8364 53.1807H109.791V59.6291H10.8364V53.1807Z" fill="#19003F"/>
<path d="M10.8364 72.5288H109.791V78.9772H10.8364V72.5288Z" fill="#19003F"/>
</svg>
