<svg width="109" height="109" viewBox="0 0 109 109" fill="none" xmlns="http://www.w3.org/2000/svg">
<path d="M54.2917 0.98584C43.6446 0.98584 33.2366 4.14307 24.3839 10.0583C15.5311 15.9735 8.63125 24.381 4.55678 34.2177C0.482309 44.0543 -0.583758 54.8782 1.49339 65.3208C3.57054 75.7633 8.6976 85.3554 16.2262 92.884C23.7549 100.413 33.3469 105.54 43.7895 107.617C54.232 109.694 65.0559 108.628 74.8926 104.553C84.7292 100.479 93.1367 93.5791 99.0519 84.7264C104.967 75.8736 108.124 65.4656 108.124 54.8185C108.124 47.7491 106.732 40.7489 104.027 34.2177C101.321 27.6864 97.356 21.7519 92.3572 16.7531C87.3583 11.7542 81.4239 7.78896 74.8926 5.08361C68.3613 2.37826 61.3611 0.98584 54.2917 0.98584ZM54.2917 11.7524C57.5355 11.7736 60.7671 12.1527 63.9278 12.8829C62.992 14.9952 61.5498 16.8442 59.7288 18.2661C58.5445 19.1813 57.2525 19.9349 55.9605 20.7424C51.8704 22.7562 48.4219 25.8692 46.0015 29.7325C43.3498 35.2588 42.1988 41.3854 42.6638 47.4973C42.6638 54.8185 42.6638 59.1251 37.5497 62.9473C30.1747 68.7074 18.9236 65.4774 11.9254 62.5704C11.4679 60.0116 11.2337 57.4179 11.2255 54.8185C11.2255 43.3967 15.7629 32.4426 23.8393 24.3662C31.9158 16.2897 42.8698 11.7524 54.2917 11.7524ZM16.6088 75.275C20.1264 76.1894 23.7412 76.6773 27.3754 76.7284C33.4563 76.8957 39.4145 74.9982 44.2788 71.3452C53.4842 64.1316 53.4842 54.8724 53.4842 47.4435C53.0759 43.1437 53.7611 38.8106 55.476 34.8466C57.034 32.7252 59.1098 31.0385 61.5053 29.9478C63.2168 28.9476 64.8704 27.8513 66.4579 26.664C69.8033 24.0215 72.4011 20.5516 73.9945 16.5973C81.5685 20.4725 87.825 26.5042 91.9746 33.9314C84.2765 35.0081 73.3485 37.5382 71.1952 47.5511C70.7091 49.9435 70.4567 52.3774 70.4415 54.8185C70.6158 57.5471 70.0778 60.274 68.8804 62.7319L68.342 63.6471C64.8429 69.461 60.9131 76.0824 66.2426 85.1802C66.8886 86.3107 67.5884 87.3873 68.2882 88.464C69.721 90.119 70.6872 92.1258 71.0875 94.2779C65.793 96.6116 60.0775 97.839 54.2917 97.8847C46.5593 97.8461 38.9799 95.7263 32.3494 91.748C25.7188 87.7697 20.2817 82.0795 16.6088 75.275ZM80.8312 88.8408C79.9 86.6912 78.7643 84.6361 77.4398 82.7039C76.8476 81.8425 76.2554 80.9812 75.7171 80.0661C73.6176 76.4054 74.3713 74.6828 77.7628 69.2995L78.3011 68.3844C80.4108 64.3581 81.414 59.8439 81.208 55.303C81.2026 53.4975 81.3648 51.6953 81.6925 49.9198C82.5539 45.99 90.8979 44.9133 96.0659 44.5365C98.1546 52.6572 97.8086 61.213 95.071 69.1386C92.3334 77.0642 87.3252 84.0095 80.6697 89.11L80.8312 88.8408Z" fill="#231F20"/>
</svg>
