<svg width="23" height="22" viewBox="0 0 23 22" fill="none" xmlns="http://www.w3.org/2000/svg">
<path id="all-executions-svg" d="M6.16483 0.175467C6.1156 0.11985 6.0571 0.0757207 5.99269 0.0456102C5.92828 0.0154997 5.85923 0 5.78949 0C5.71975 0 5.65069 0.0154997 5.58628 0.0456102C5.52187 0.0757207 5.46338 0.11985 5.41415 0.175467L2.60219 3.32291L1.59981 2.22322C1.55058 2.1676 1.49208 2.12347 1.42767 2.09336C1.36326 2.06325 1.29421 2.04775 1.22447 2.04775C1.15473 2.04775 1.08567 2.06325 1.02126 2.09336C0.956853 2.12347 0.898357 2.1676 0.849128 2.22322L0.155853 3.00474C0.106453 3.06016 0.0672566 3.12602 0.0405118 3.19853C0.0137671 3.27105 0 3.34879 0 3.42731C0 3.50583 0.0137671 3.58358 0.0405118 3.65609C0.0672566 3.72861 0.106453 3.79446 0.155853 3.84989L2.25732 6.20637C2.36221 6.31863 2.5014 6.38122 2.64612 6.38122C2.79085 6.38122 2.93004 6.31863 3.03493 6.20637L3.72335 5.42982L6.91153 1.84091C7.01087 1.72899 7.067 1.57748 7.06774 1.41926C7.06848 1.26103 7.01378 1.10886 6.91551 0.995761L6.16483 0.175467ZM6.16483 8.08957C6.1156 8.03395 6.0571 7.98982 5.99269 7.95971C5.92828 7.9296 5.85923 7.9141 5.78949 7.9141C5.71975 7.9141 5.65069 7.9296 5.58628 7.95971C5.52187 7.98982 5.46338 8.03395 5.41415 8.08957L2.60219 11.2574L1.59981 10.1587C1.55058 10.1031 1.49208 10.059 1.42767 10.0288C1.36326 9.99873 1.29421 9.98323 1.22447 9.98323C1.15473 9.98323 1.08567 9.99873 1.02126 10.0288C0.956853 10.059 0.898357 10.1031 0.849128 10.1587L0.155853 10.9387C0.106453 10.9941 0.0672566 11.06 0.0405118 11.1325C0.0137671 11.205 0 11.2828 0 11.3613C0 11.4398 0.0137671 11.5176 0.0405118 11.5901C0.0672566 11.6626 0.106453 11.7284 0.155853 11.7839L2.25202 14.1453C2.35684 14.2576 2.49595 14.3201 2.6406 14.3201C2.78525 14.3201 2.92437 14.2576 3.02919 14.1453L3.72247 13.3653L6.91065 9.7749C7.0096 9.66375 7.06555 9.51309 7.06629 9.35573C7.06703 9.19836 7.01252 9.04704 6.91462 8.93472L6.16483 8.08957ZM2.82607 16.7056C1.65633 16.7056 0.680446 17.7745 0.680446 19.0919C0.680446 20.4094 1.65721 21.4783 2.82607 21.4783C3.38821 21.4783 3.92733 21.2268 4.32483 20.7793C4.72232 20.3318 4.94563 19.7248 4.94563 19.0919C4.94563 18.4591 4.72232 17.8521 4.32483 17.4046C3.92733 16.9571 3.38821 16.7056 2.82607 16.7056ZM21.9022 17.5011H9.18477C8.99739 17.5011 8.81768 17.5849 8.68518 17.7341C8.55268 17.8832 8.47825 18.0855 8.47825 18.2965V19.8874C8.47825 20.0983 8.55268 20.3007 8.68518 20.4498C8.81768 20.599 8.99739 20.6828 9.18477 20.6828H21.9022C22.0896 20.6828 22.2693 20.599 22.4018 20.4498C22.5343 20.3007 22.6087 20.0983 22.6087 19.8874V18.2965C22.6087 18.0855 22.5343 17.8832 22.4018 17.7341C22.2693 17.5849 22.0896 17.5011 21.9022 17.5011ZM21.9022 1.59234H9.18477C8.99739 1.59234 8.81768 1.67614 8.68518 1.82532C8.55268 1.97449 8.47825 2.17681 8.47825 2.38778V3.97865C8.47825 4.18961 8.55268 4.39193 8.68518 4.54111C8.81768 4.69028 8.99739 4.77409 9.18477 4.77409H21.9022C22.0896 4.77409 22.2693 4.69028 22.4018 4.54111C22.5343 4.39193 22.6087 4.18961 22.6087 3.97865V2.38778C22.6087 2.17681 22.5343 1.97449 22.4018 1.82532C22.2693 1.67614 22.0896 1.59234 21.9022 1.59234ZM21.9022 9.54671H9.18477C8.99739 9.54671 8.81768 9.63051 8.68518 9.77969C8.55268 9.92886 8.47825 10.1312 8.47825 10.3421V11.933C8.47825 12.144 8.55268 12.3463 8.68518 12.4955C8.81768 12.6447 8.99739 12.7285 9.18477 12.7285H21.9022C22.0896 12.7285 22.2693 12.6447 22.4018 12.4955C22.5343 12.3463 22.6087 12.144 22.6087 11.933V10.3421C22.6087 10.1312 22.5343 9.92886 22.4018 9.77969C22.2693 9.63051 22.0896 9.54671 21.9022 9.54671Z" fill="#F6F1F1"/>
</svg>
