<svg width="27" height="17" viewBox="0 0 27 17" fill="none" xmlns="http://www.w3.org/2000/svg">
<path id="credentials-svg" d="M23.913 17H17.3913V12.1429H14.4783C13.2391 15.0814 10.5652 17 7.6087 17C3.41304 17 0 13.1871 0 8.5C0 3.81286 3.41304 0 7.6087 0C10.5652 0 13.2283 1.91857 14.4783 4.85714H26.087V12.1429H23.913V17ZM19.5652 14.5714H21.7391V9.71429H23.913V7.28571H12.9783L12.7283 6.47214C11.9674 4.05571 9.90217 2.42857 7.6087 2.42857C4.6087 2.42857 2.17391 5.14857 2.17391 8.5C2.17391 11.8514 4.6087 14.5714 7.6087 14.5714C9.90217 14.5714 11.9674 12.9443 12.7283 10.5279L12.9783 9.71429H19.5652V14.5714ZM7.6087 12.1429C5.81522 12.1429 4.34783 10.5036 4.34783 8.5C4.34783 6.49643 5.81522 4.85714 7.6087 4.85714C9.40217 4.85714 10.8696 6.49643 10.8696 8.5C10.8696 10.5036 9.40217 12.1429 7.6087 12.1429ZM7.6087 7.28571C7.01087 7.28571 6.52174 7.83214 6.52174 8.5C6.52174 9.16786 7.01087 9.71429 7.6087 9.71429C8.20652 9.71429 8.69565 9.16786 8.69565 8.5C8.69565 7.83214 8.20652 7.28571 7.6087 7.28571Z" fill="#F6F1F1"/>
</svg>
