<svg width="24" height="24" viewBox="0 0 24 24" fill="none" xmlns="http://www.w3.org/2000/svg">
<path d="M9.27225 12.2825C9.27151 12.411 9.29614 12.5383 9.34473 12.6573C9.39332 12.7763 9.46492 12.8845 9.55542 12.9757L13.4612 16.8815C13.5523 16.9726 13.6603 17.0448 13.7793 17.0941C13.8983 17.1433 14.0257 17.1687 14.1545 17.1687C14.2833 17.1687 14.4107 17.1433 14.5297 17.0941C14.6487 17.0448 14.7567 16.9726 14.8478 16.8815C14.9388 16.7905 15.011 16.6824 15.0603 16.5635C15.1096 16.4445 15.1349 16.317 15.1349 16.1883C15.1349 16.0595 15.1096 15.932 15.0603 15.8131C15.011 15.6941 14.9388 15.586 14.8478 15.495L11.6157 12.2825L14.7208 9.06016C14.8207 8.97034 14.901 8.86087 14.9566 8.73861C15.0123 8.61634 15.0421 8.48391 15.0442 8.3496C15.0464 8.21528 15.0208 8.08198 14.969 7.95801C14.9173 7.83404 14.8405 7.72209 14.7435 7.62915C14.6465 7.5362 14.5314 7.46427 14.4054 7.41784C14.2793 7.37142 14.145 7.35151 14.0109 7.35934C13.8768 7.36718 13.7458 7.40261 13.626 7.4634C13.5062 7.5242 13.4003 7.60905 13.3148 7.71266L9.54565 11.6185C9.37349 11.797 9.27574 12.0344 9.27225 12.2825Z" fill="#19003F"/>
</svg>
