<svg width="24" height="24" viewBox="0 0 24 24" fill="none" xmlns="http://www.w3.org/2000/svg">
<path d="M15.1349 12.2825C15.1357 12.411 15.111 12.5383 15.0625 12.6573C15.0139 12.7763 14.9423 12.8845 14.8518 12.9757L10.946 16.8815C10.8549 16.9726 10.7468 17.0448 10.6279 17.0941C10.5089 17.1433 10.3814 17.1687 10.2527 17.1687C10.1239 17.1687 9.99643 17.1433 9.87748 17.0941C9.75852 17.0448 9.65044 16.9726 9.5594 16.8815C9.46835 16.7905 9.39614 16.6824 9.34686 16.5635C9.29759 16.4445 9.27223 16.317 9.27223 16.1883C9.27223 16.0595 9.29759 15.932 9.34686 15.8131C9.39614 15.6941 9.46835 15.586 9.5594 15.495L12.7915 12.2825L9.68634 9.06016C9.58646 8.97034 9.50618 8.86087 9.45054 8.73861C9.39489 8.61634 9.36508 8.48391 9.36295 8.3496C9.36082 8.21529 9.38643 8.08198 9.43817 7.95801C9.48991 7.83405 9.56668 7.72209 9.66366 7.62915C9.76065 7.5362 9.87577 7.46427 10.0018 7.41784C10.1279 7.37142 10.2622 7.35151 10.3963 7.35935C10.5304 7.36718 10.6614 7.40261 10.7812 7.4634C10.901 7.5242 11.0069 7.60905 11.0924 7.71266L14.8615 11.6185C15.0337 11.797 15.1314 12.0344 15.1349 12.2825Z" fill="#19003F"/>
</svg>
