<svg width="15" height="23" viewBox="0 0 15 23" fill="none" xmlns="http://www.w3.org/2000/svg">
<path d="M7.41109 0C4.0581 0 1.88637 1.46908 0.181336 4.08906C-0.127964 4.56433 -0.0326072 5.21597 0.39885 5.56582L2.21096 7.03517C2.6467 7.38848 3.26669 7.30587 3.60783 6.84883C4.66007 5.43914 5.44061 4.62749 7.08423 4.62749C8.37654 4.62749 9.975 5.5169 9.975 6.85701C9.975 7.87009 9.19295 8.39037 7.91694 9.15539C6.42891 10.0475 4.45978 11.1578 4.45978 13.9353V14.375C4.45978 14.9704 4.91115 15.4531 5.46795 15.4531H8.51227C9.06907 15.4531 9.52044 14.9704 9.52044 14.375V14.1157C9.52044 12.1903 14.7826 12.1101 14.7826 6.9C14.7827 2.97634 10.9767 0 7.41109 0ZM6.99013 16.7765C5.38562 16.7765 4.08024 18.1724 4.08024 19.8883C4.08024 21.6041 5.38562 23 6.99013 23C8.59464 23 9.90002 21.6041 9.90002 19.8882C9.90002 18.1724 8.59464 16.7765 6.99013 16.7765Z" fill="#F6F1F1"/>
</svg>
