<svg width="105" height="102" viewBox="0 0 105 102" fill="none" xmlns="http://www.w3.org/2000/svg">
<path d="M91.875 101.623H13.125C9.50195 101.623 6.40869 100.382 3.84521 97.9014C1.28174 95.4204 0 92.4266 0 88.9201V12.7029C0 9.19635 1.28174 6.20257 3.84521 3.72154C6.40869 1.24051 9.50195 0 13.125 0H45.9375V6.35144H42.6562C41.7676 6.35144 40.9985 6.6657 40.3491 7.29423C39.6997 7.92275 39.375 8.66706 39.375 9.52715C39.375 10.3872 39.6997 11.1316 40.3491 11.7601C40.9985 12.3886 41.7676 12.7029 42.6562 12.7029H45.9375V19.0543H42.6562C41.7676 19.0543 40.9985 19.3686 40.3491 19.9971C39.6997 20.6256 39.375 21.3699 39.375 22.23C39.375 23.0901 39.6997 23.8344 40.3491 24.4629C40.9985 25.0915 41.7676 25.4057 42.6562 25.4057H45.9375V31.7572H42.6562C41.7676 31.7572 40.9985 32.0714 40.3491 32.7C39.6997 33.3285 39.375 34.0728 39.375 34.9329C39.375 35.793 39.6997 36.5373 40.3491 37.1658C40.9985 37.7943 41.7676 38.1086 42.6562 38.1086H45.9375V44.46H42.6562C41.7676 44.46 40.9985 44.7743 40.3491 45.4028C39.6997 46.0314 39.375 46.7757 39.375 47.6358C39.375 48.4959 39.6997 49.2402 40.3491 49.8687C40.9985 50.4972 41.7676 50.8115 42.6562 50.8115H45.9375V57.1629C44.0918 57.1629 42.5366 57.7914 41.272 59.0485C40.0073 60.3056 39.375 61.7942 39.375 63.5144V82.5687C39.375 84.355 40.0073 85.8602 41.272 87.0841C42.5366 88.3081 44.0918 88.9201 45.9375 88.9201H59.0625C60.9082 88.9201 62.4634 88.3081 63.728 87.0841C64.9927 85.8602 65.625 84.355 65.625 82.5687V63.5144C65.625 61.7942 64.9927 60.3056 63.728 59.0485C62.4634 57.7914 60.9082 57.1629 59.0625 57.1629H62.3438C63.2324 57.1629 64.0015 56.8487 64.6509 56.2201C65.3003 55.5916 65.625 54.8473 65.625 53.9872C65.625 53.1271 65.3003 52.3828 64.6509 51.7543C64.0015 51.1257 63.2324 50.8115 62.3438 50.8115H59.0625V44.46H62.3438C63.2324 44.46 64.0015 44.1458 64.6509 43.5173C65.3003 42.8887 65.625 42.1444 65.625 41.2843C65.625 40.4242 65.3003 39.6799 64.6509 39.0514C64.0015 38.4229 63.2324 38.1086 62.3438 38.1086H59.0625V31.7572H62.3438C63.2324 31.7572 64.0015 31.4429 64.6509 30.8144C65.3003 30.1859 65.625 29.4415 65.625 28.5815C65.625 27.7214 65.3003 26.9771 64.6509 26.3485C64.0015 25.72 63.2324 25.4057 62.3438 25.4057H59.0625V19.0543H62.3438C63.2324 19.0543 64.0015 18.74 64.6509 18.1115C65.3003 17.483 65.625 16.7387 65.625 15.8786C65.625 15.0185 65.3003 14.2742 64.6509 13.6457C64.0015 13.0171 63.2324 12.7029 62.3438 12.7029H59.0625V6.35144H62.3438C63.2324 6.35144 64.0015 6.03717 64.6509 5.40864C65.3003 4.78012 65.625 4.03581 65.625 3.17572C65.625 2.31563 65.3003 1.57132 64.6509 0.942791C64.0015 0.314264 63.2324 0 62.3438 0H91.875C95.498 0 98.5913 1.24051 101.155 3.72154C103.718 6.20257 105 9.19635 105 12.7029V88.9201C105 92.4266 103.718 95.4204 101.155 97.9014C98.5913 100.382 95.498 101.623 91.875 101.623ZM52.5 82.5687C50.7227 82.5687 49.1846 81.9567 47.8857 80.7327C46.5869 79.5087 45.9375 78.0201 45.9375 76.2668C45.9375 74.5136 46.5698 73.0084 47.8345 71.7514C49.0991 70.4943 50.6543 69.8658 52.5 69.8658C54.3457 69.8658 55.9009 70.4943 57.1655 71.7514C58.4302 73.0084 59.0625 74.5136 59.0625 76.2668C59.0625 78.0201 58.4131 79.5087 57.1143 80.7327C55.8154 81.9567 54.2773 82.5687 52.5 82.5687Z" fill="#F6F1F1"/>
</svg>
