<svg width="70" height="70" viewBox="0 0 70 70" fill="none" xmlns="http://www.w3.org/2000/svg">
<path d="M34.6881 0C15.5257 0 0 15.5257 0 34.6881C0 53.8505 15.5257 69.3762 34.6881 69.3762C53.8505 69.3762 69.3762 53.8505 69.3762 34.6881C69.3762 15.5257 53.8505 0 34.6881 0ZM34.6881 13.4276C41.4858 13.4276 46.9968 18.9386 46.9968 25.7363C46.9968 32.5341 41.4858 38.045 34.6881 38.045C27.8903 38.045 22.3794 32.5341 22.3794 25.7363C22.3794 18.9386 27.8903 13.4276 34.6881 13.4276ZM34.6881 61.5434C26.4776 61.5434 19.1204 57.8228 14.1969 52.0041C16.8265 47.0527 21.9738 43.6398 27.9743 43.6398C28.31 43.6398 28.6456 43.6958 28.9673 43.7937C30.7857 44.3812 32.6879 44.7588 34.6881 44.7588C36.6882 44.7588 38.6045 44.3812 40.4088 43.7937C40.7305 43.6958 41.0662 43.6398 41.4019 43.6398C47.4024 43.6398 52.5496 47.0527 55.1792 52.0041C50.2558 57.8228 42.8985 61.5434 34.6881 61.5434Z" fill="black"/>
</svg>
