<svg width="70" height="49" viewBox="0 0 70 49" fill="none" xmlns="http://www.w3.org/2000/svg">
<path d="M10.4064 20.8129C14.233 20.8129 17.344 17.7018 17.344 13.8752C17.344 10.0487 14.233 6.93762 10.4064 6.93762C6.5799 6.93762 3.46881 10.0487 3.46881 13.8752C3.46881 17.7018 6.5799 20.8129 10.4064 20.8129ZM58.9697 20.8129C62.7963 20.8129 65.9074 17.7018 65.9074 13.8752C65.9074 10.0487 62.7963 6.93762 58.9697 6.93762C55.1432 6.93762 52.0321 10.0487 52.0321 13.8752C52.0321 17.7018 55.1432 20.8129 58.9697 20.8129ZM62.4386 24.2817H55.5009C53.5931 24.2817 51.8695 25.0513 50.6121 26.2979C54.9806 28.6936 58.0809 33.0187 58.7529 38.1569H65.9074C67.826 38.1569 69.3762 36.6068 69.3762 34.6881V31.2193C69.3762 27.3927 66.2651 24.2817 62.4386 24.2817ZM34.6881 24.2817C41.3981 24.2817 46.8289 18.8508 46.8289 12.1408C46.8289 5.43085 41.3981 0 34.6881 0C27.9781 0 22.5473 5.43085 22.5473 12.1408C22.5473 18.8508 27.9781 24.2817 34.6881 24.2817ZM43.0132 27.7505H42.1135C39.8588 28.8345 37.3547 29.4849 34.6881 29.4849C32.0214 29.4849 29.5282 28.8345 27.2627 27.7505H26.3629C19.4687 27.7505 13.8752 33.3439 13.8752 40.2382V43.3601C13.8752 46.2327 16.2058 48.5633 19.0784 48.5633H50.2977C53.1703 48.5633 55.5009 46.2327 55.5009 43.3601V40.2382C55.5009 33.3439 49.9075 27.7505 43.0132 27.7505ZM18.7641 26.2979C17.5066 25.0513 15.7831 24.2817 13.8752 24.2817H6.93762C3.11109 24.2817 0 27.3927 0 31.2193V34.6881C0 36.6068 1.55012 38.1569 3.46881 38.1569H10.6124C11.2953 33.0187 14.3956 28.6936 18.7641 26.2979Z" fill="black"/>
</svg>
